<svg width="20" height="20" viewBox="0 0 20 20" fill="none" xmlns="http://www.w3.org/2000/svg">
<path d="M15.8334 7.17264V5.95931C15.8334 4.41221 15.2188 2.92848 14.1248 1.83452C13.0308 0.740558 11.5471 0.125977 10 0.125977C8.45292 0.125977 6.96919 0.740558 5.87523 1.83452C4.78127 2.92848 4.16669 4.41221 4.16669 5.95931V7.17264C3.41497 7.55625 2.78376 8.13996 2.34264 8.85943C1.90152 9.57891 1.6676 10.4062 1.66669 11.2501V15.4168C1.66801 16.632 2.15132 17.797 3.01058 18.6563C3.86983 19.5155 5.03485 19.9988 6.25002 20.0001H13.75C14.9652 19.9988 16.1302 19.5155 16.9895 18.6563C17.8487 17.797 18.332 16.632 18.3334 15.4168V11.2501C18.3324 10.4062 18.0985 9.57891 17.6574 8.85943C17.2163 8.13996 16.5851 7.55625 15.8334 7.17264ZM10 2.62598C10.8841 2.62598 11.7319 2.97717 12.357 3.60229C12.9822 4.22741 13.3334 5.07525 13.3334 5.95931V6.66681H6.66669V5.95931C6.66669 5.07525 7.01788 4.22741 7.643 3.60229C8.26812 2.97717 9.11597 2.62598 10 2.62598ZM15.8334 15.4168C15.8334 15.9693 15.6139 16.4992 15.2232 16.8899C14.8325 17.2807 14.3026 17.5001 13.75 17.5001H6.25002C5.69749 17.5001 5.16758 17.2807 4.77688 16.8899C4.38618 16.4992 4.16669 15.9693 4.16669 15.4168V11.2501C4.16669 10.6976 4.38618 10.1677 4.77688 9.777C5.16758 9.3863 5.69749 9.16681 6.25002 9.16681H13.75C14.3026 9.16681 14.8325 9.3863 15.2232 9.777C15.6139 10.1677 15.8334 10.6976 15.8334 11.2501V15.4168Z" fill="#04091E"/>
<path d="M10.4166 11.667H9.58325C8.8929 11.667 8.33325 12.2266 8.33325 12.917C8.33325 13.6073 8.8929 14.167 9.58325 14.167H10.4166C11.1069 14.167 11.6666 13.6073 11.6666 12.917C11.6666 12.2266 11.1069 11.667 10.4166 11.667Z" fill="#04091E"/>
</svg>
