<svg width="16" height="16" viewBox="0 0 16 16" fill="none" xmlns="http://www.w3.org/2000/svg">
<path d="M5.33325 1.33301H10.6666C11.7275 1.33301 12.7449 1.75444 13.495 2.50458C14.2452 3.25473 14.6666 4.27214 14.6666 5.33301V10.6663C14.6666 11.7272 14.2452 12.7446 13.495 13.4948C12.7449 14.2449 11.7275 14.6663 10.6666 14.6663H5.33325C4.27239 14.6663 3.25497 14.2449 2.50482 13.4948C1.75468 12.7446 1.33325 11.7272 1.33325 10.6663L1.33325 5.33301C1.33325 4.27214 1.75468 3.25473 2.50482 2.50458C3.25497 1.75444 4.27239 1.33301 5.33325 1.33301V1.33301ZM5.33325 2.66634C4.62601 2.66634 3.94773 2.94729 3.44763 3.44739C2.94754 3.94749 2.66659 4.62576 2.66659 5.33301V10.6663C2.66659 11.3736 2.94754 12.0519 3.44763 12.552C3.94773 13.0521 4.62601 13.333 5.33325 13.333H10.6666C11.3738 13.333 12.0521 13.0521 12.5522 12.552C13.0523 12.0519 13.3333 11.3736 13.3333 10.6663V5.33301C13.3333 4.62576 13.0523 3.94749 12.5522 3.44739C12.0521 2.94729 11.3738 2.66634 10.6666 2.66634H5.33325ZM9.33325 7.33301H11.3333C11.5101 7.33301 11.6796 7.40325 11.8047 7.52827C11.9297 7.65329 11.9999 7.82286 11.9999 7.99967C11.9999 8.17649 11.9297 8.34605 11.8047 8.47108C11.6796 8.5961 11.5101 8.66634 11.3333 8.66634H9.33325C9.15644 8.66634 8.98687 8.5961 8.86185 8.47108C8.73682 8.34605 8.66659 8.17649 8.66659 7.99967C8.66659 7.82286 8.73682 7.65329 8.86185 7.52827C8.98687 7.40325 9.15644 7.33301 9.33325 7.33301ZM7.99992 9.99967H11.3333C11.5101 9.99967 11.6796 10.0699 11.8047 10.1949C11.9297 10.32 11.9999 10.4895 11.9999 10.6663C11.9999 10.8432 11.9297 11.0127 11.8047 11.1377C11.6796 11.2628 11.5101 11.333 11.3333 11.333H7.99992C7.82311 11.333 7.65354 11.2628 7.52852 11.1377C7.40349 11.0127 7.33325 10.8432 7.33325 10.6663C7.33325 10.4895 7.40349 10.32 7.52852 10.1949C7.65354 10.0699 7.82311 9.99967 7.99992 9.99967ZM7.99992 4.66634H11.3333C11.5101 4.66634 11.6796 4.73658 11.8047 4.8616C11.9297 4.98663 11.9999 5.1562 11.9999 5.33301C11.9999 5.50982 11.9297 5.67939 11.8047 5.80441C11.6796 5.92944 11.5101 5.99967 11.3333 5.99967H7.99992C7.82311 5.99967 7.65354 5.92944 7.52852 5.80441C7.40349 5.67939 7.33325 5.50982 7.33325 5.33301C7.33325 5.1562 7.40349 4.98663 7.52852 4.8616C7.65354 4.73658 7.82311 4.66634 7.99992 4.66634ZM5.21859 8.16167L6.63325 6.74634C6.69519 6.68444 6.76872 6.63535 6.84963 6.60187C6.93054 6.56839 7.01726 6.55118 7.10482 6.55121C7.19239 6.55124 7.27909 6.56851 7.35998 6.60205C7.44087 6.63559 7.51436 6.68473 7.57625 6.74667C7.63815 6.80861 7.68724 6.88214 7.72072 6.96305C7.7542 7.04396 7.77142 7.13068 7.77139 7.21824C7.77136 7.30581 7.75408 7.39251 7.72054 7.4734C7.687 7.55429 7.63786 7.62778 7.57592 7.68967L5.69059 9.57501C5.62867 9.63699 5.55515 9.68616 5.47421 9.71971C5.39328 9.75326 5.30653 9.77053 5.21892 9.77053C5.13131 9.77053 5.04456 9.75326 4.96363 9.71971C4.88269 9.68616 4.80917 9.63699 4.74725 9.57501L3.80459 8.63301C3.68315 8.50727 3.61595 8.33887 3.61747 8.16407C3.61899 7.98928 3.6891 7.82207 3.81271 7.69846C3.93631 7.57486 4.10352 7.50474 4.27832 7.50322C4.45312 7.50171 4.62152 7.5689 4.74725 7.69034L5.21859 8.16167Z" fill="url(#paint0_linear_1208_175)"/>
<defs>
<linearGradient id="paint0_linear_1208_175" x1="7.99992" y1="1.33301" x2="7.99992" y2="14.6663" gradientUnits="userSpaceOnUse">
<stop stop-color="#85EF95"/>
<stop offset="1" stop-color="#4CE0AD"/>
</linearGradient>
</defs>
</svg>
