<svg width="16" height="16" viewBox="0 0 16 16" fill="none" xmlns="http://www.w3.org/2000/svg">
<path d="M13.1426 6.9528V5.61947C13.1426 5.44265 13.0723 5.27309 12.9473 5.14806C12.8223 5.02304 12.6527 4.9528 12.4759 4.9528H11.8092V5.61947C11.8092 5.79628 11.739 5.96585 11.614 6.09087C11.489 6.21589 11.3194 6.28613 11.1426 6.28613C10.9658 6.28613 10.7962 6.21589 10.6712 6.09087C10.5461 5.96585 10.4759 5.79628 10.4759 5.61947V4.9528H5.14258V5.61947C5.14258 5.79628 5.07234 5.96585 4.94732 6.09087C4.82229 6.21589 4.65272 6.28613 4.47591 6.28613C4.2991 6.28613 4.12953 6.21589 4.00451 6.09087C3.87948 5.96585 3.80924 5.79628 3.80924 5.61947V4.9528H3.14258C2.96577 4.9528 2.7962 5.02304 2.67117 5.14806C2.54615 5.27309 2.47591 5.44265 2.47591 5.61947V6.9528H13.1426ZM13.1426 8.28613H2.47591V12.2861C2.47591 12.4629 2.54615 12.6325 2.67117 12.7575C2.7962 12.8826 2.96577 12.9528 3.14258 12.9528H12.4759C12.6527 12.9528 12.8223 12.8826 12.9473 12.7575C13.0723 12.6325 13.1426 12.4629 13.1426 12.2861V8.28613ZM11.8092 3.61947H12.4759C13.0063 3.61947 13.5151 3.83018 13.8901 4.20525C14.2652 4.58032 14.4759 5.08903 14.4759 5.61947V12.2861C14.4759 12.8166 14.2652 13.3253 13.8901 13.7003C13.5151 14.0754 13.0063 14.2861 12.4759 14.2861H3.14258C2.61215 14.2861 2.10344 14.0754 1.72836 13.7003C1.35329 13.3253 1.14258 12.8166 1.14258 12.2861L1.14258 5.61947C1.14258 5.08903 1.35329 4.58032 1.72836 4.20525C2.10344 3.83018 2.61215 3.61947 3.14258 3.61947H3.80924V2.9528C3.80924 2.77599 3.87948 2.60642 4.00451 2.48139C4.12953 2.35637 4.2991 2.28613 4.47591 2.28613C4.65272 2.28613 4.82229 2.35637 4.94732 2.48139C5.07234 2.60642 5.14258 2.77599 5.14258 2.9528V3.61947H10.4759V2.9528C10.4759 2.77599 10.5461 2.60642 10.6712 2.48139C10.7962 2.35637 10.9658 2.28613 11.1426 2.28613C11.3194 2.28613 11.489 2.35637 11.614 2.48139C11.739 2.60642 11.8092 2.77599 11.8092 2.9528V3.61947Z" fill="url(#paint0_linear_1208_171)"/>
<defs>
<linearGradient id="paint0_linear_1208_171" x1="7.80924" y1="2.28613" x2="7.80924" y2="14.2861" gradientUnits="userSpaceOnUse">
<stop stop-color="#85EF95"/>
<stop offset="1" stop-color="#4CE0AD"/>
</linearGradient>
</defs>
</svg>
