<svg width="36" height="36" viewBox="0 0 36 36" fill="none" xmlns="http://www.w3.org/2000/svg">
<path opacity="0.4" d="M3 27V12H33V27C33 30.3137 30.3137 33 27 33H9C5.68629 33 3 30.3137 3 27Z" fill="white"/>
<path fill-rule="evenodd" clip-rule="evenodd" d="M9 3H27C30.3137 3 33 5.68629 33 9V12H3V9C3 5.68629 5.68629 3 9 3ZM28.5 7.5C28.5 8.32843 27.8284 9 27 9C26.1716 9 25.5 8.32843 25.5 7.5C25.5 6.67157 26.1716 6 27 6C27.8284 6 28.5 6.67157 28.5 7.5ZM21 9C21.8284 9 22.5 8.32843 22.5 7.5C22.5 6.67157 21.8284 6 21 6C20.1716 6 19.5 6.67157 19.5 7.5C19.5 8.32843 20.1716 9 21 9Z" fill="white"/>
</svg>
