<svg width="52" height="52" viewBox="0 0 52 52" fill="none" xmlns="http://www.w3.org/2000/svg">
<path d="M20.5143 9.54659L20.5207 9.5612L20.5277 9.57553C20.6211 9.76546 20.6836 9.968 20.7134 10.1759L21.4357 20.9132L21.4357 20.9138L21.7936 26.3017C21.8001 26.9255 21.8991 27.5448 22.0874 28.1403L22.0979 28.1733L22.1113 28.2052C22.6694 29.5307 24.0054 30.362 25.4471 30.304L25.4565 30.3036L25.4659 30.303L42.7582 29.1721C43.3075 29.1674 43.8342 29.3749 44.2252 29.7458C44.5482 30.0523 44.7568 30.4495 44.8267 30.8749L44.8502 31.1529C44.1342 40.7047 37.1056 48.6792 27.5428 50.7421C17.9591 52.8095 8.14041 48.4402 3.41263 40.0246C2.05198 37.5832 1.20246 34.9005 0.913361 32.1338L0.911712 32.118L0.909398 32.1024C0.790177 31.2939 0.737684 30.4773 0.752424 29.6606L0.752556 29.6533L0.752546 29.646C0.737626 19.3842 8.04307 10.4956 18.2957 8.34264C19.2369 8.20418 20.1449 8.70635 20.5143 9.54659Z" stroke="black" stroke-width="1.5"/>
<path d="M28.2588 0.00212989C40.1165 0.303749 50.0826 8.82906 52.0009 20.312L51.9826 20.3967L51.9302 20.5199L51.9375 20.8582C51.9103 21.3063 51.7373 21.7374 51.4391 22.0857C51.1285 22.4485 50.7041 22.6955 50.2367 22.7914L49.9517 22.8305L29.9782 24.1244C29.3138 24.1899 28.6523 23.9757 28.1582 23.5351C27.7465 23.1679 27.4833 22.6723 27.4089 22.1382L26.0683 2.19716C26.0449 2.12974 26.0449 2.05664 26.0683 1.98921C26.0866 1.43955 26.3286 0.919985 26.7402 0.546598C27.1518 0.173212 27.6987 -0.022881 28.2588 0.00212989Z" fill="#2662FA"/>
</svg>
