<svg width="20" height="20" viewBox="0 0 20 20" fill="none" xmlns="http://www.w3.org/2000/svg">
<g clip-path="url(#clip0_2107_6923)">
<path d="M15.8385 7.17264V5.95931C15.8385 4.41221 15.224 2.92848 14.13 1.83452C13.036 0.740558 11.5523 0.125977 10.0052 0.125977C8.45811 0.125977 6.97438 0.740558 5.88042 1.83452C4.78646 2.92848 4.17188 4.41221 4.17188 5.95931V7.17264C3.42016 7.55625 2.78895 8.13996 2.34783 8.85943C1.9067 9.57891 1.67279 10.4062 1.67188 11.2501V15.4168C1.6732 16.632 2.15651 17.797 3.01576 18.6563C3.87502 19.5155 5.04004 19.9988 6.25521 20.0001H13.7552C14.9704 19.9988 16.1354 19.5155 16.9947 18.6563C17.8539 17.797 18.3372 16.632 18.3385 15.4168V11.2501C18.3376 10.4062 18.1037 9.57891 17.6626 8.85943C17.2215 8.13996 16.5903 7.55625 15.8385 7.17264ZM10.0052 2.62598C10.8893 2.62598 11.7371 2.97717 12.3622 3.60229C12.9874 4.22741 13.3385 5.07525 13.3385 5.95931V6.66681H6.67188V5.95931C6.67188 5.07525 7.02306 4.22741 7.64819 3.60229C8.27331 2.97717 9.12115 2.62598 10.0052 2.62598ZM15.8385 15.4168C15.8385 15.9693 15.619 16.4992 15.2283 16.8899C14.8376 17.2807 14.3077 17.5001 13.7552 17.5001H6.25521C5.70267 17.5001 5.17277 17.2807 4.78207 16.8899C4.39137 16.4992 4.17188 15.9693 4.17188 15.4168V11.2501C4.17188 10.6976 4.39137 10.1677 4.78207 9.777C5.17277 9.3863 5.70267 9.16681 6.25521 9.16681H13.7552C14.3077 9.16681 14.8376 9.3863 15.2283 9.777C15.619 10.1677 15.8385 10.6976 15.8385 11.2501V15.4168Z" fill="#04091E"/>
<path d="M10.4115 11.667H9.57812C8.88777 11.667 8.32812 12.2266 8.32812 12.917C8.32812 13.6073 8.88777 14.167 9.57812 14.167H10.4115C11.1018 14.167 11.6615 13.6073 11.6615 12.917C11.6615 12.2266 11.1018 11.667 10.4115 11.667Z" fill="#04091E"/>
</g>
<defs>
<clipPath id="clip0_2107_6923">
<rect width="20" height="20" fill="white"/>
</clipPath>
</defs>
</svg>
