<svg width="52" height="52" viewBox="0 0 52 52" fill="none" xmlns="http://www.w3.org/2000/svg">
<path d="M38.1738 51.2247L38.1506 51.2232H38.1273H13.8707H13.8474L13.8242 51.2247C10.2775 51.4451 6.79433 50.2201 4.16817 47.8322C1.77985 45.2032 0.55496 41.72 0.775384 38.1761L0.776831 38.1528V38.1295V13.8705V13.8472L0.775384 13.824C0.554941 10.2798 1.77747 6.79666 4.16545 4.16801C6.79433 1.77985 10.2776 0.554952 13.8242 0.775386L13.8474 0.77683H13.8707H38.1273H38.1506L38.1739 0.775382C41.7153 0.554964 45.1957 1.77732 47.8217 4.16504C50.2081 6.79702 51.4357 10.2787 51.225 13.8261L51.2237 13.8483V13.8705V38.1295V38.1525L51.2251 38.1755C51.4431 41.7201 50.2205 45.2034 47.8325 47.832C45.2036 50.2202 41.7204 51.4451 38.1738 51.2247Z" stroke="black" stroke-width="1.5"/>
<path d="M39.141 21.8339L22.1038 38.9558C21.2178 39.8182 20.0533 40.3002 18.8381 40.3002H12.889C12.5599 40.3002 12.2562 40.1734 12.0283 39.9451C11.8005 39.7168 11.6992 39.4124 11.6992 39.0826L11.8511 33.0709C11.8764 31.8787 12.3574 30.7626 13.1928 29.9256L25.2682 17.8261C25.4708 17.6231 25.8252 17.6231 26.0277 17.8261L30.263 22.0444C30.5414 22.3209 30.9465 22.501 31.3768 22.501C32.3135 22.501 33.0476 21.74 33.0476 20.8268C33.0476 20.3702 32.8704 19.9644 32.592 19.66C32.516 19.5585 28.4833 15.5431 28.4833 15.5431C28.2301 15.2895 28.2301 14.8582 28.4833 14.6046L30.1794 12.8797C31.749 11.307 34.2805 11.307 35.8501 12.8797L39.141 16.1773C40.6853 17.7246 40.6853 20.2612 39.141 21.8339Z" fill="#2662FA"/>
</svg>
