<svg width="44" height="44" viewBox="0 0 44 44" fill="none" xmlns="http://www.w3.org/2000/svg">
<path d="M13.0339 25.9741C15.6987 25.9741 17.8686 28.1533 17.8686 30.856V38.3681C17.8686 41.069 15.6985 43.25 13.0339 43.25H5.58475C2.92009 43.25 0.75 41.069 0.75 38.3681V30.856C0.75 28.1533 2.91991 25.9741 5.58475 25.9741H13.0339ZM38.4152 25.9741C41.0801 25.9741 43.25 28.1533 43.25 30.856V38.3681C43.25 41.069 41.0799 43.25 38.4152 43.25H30.9661C28.3015 43.25 26.1314 41.069 26.1314 38.3681V30.856C26.1314 28.1533 28.3013 25.9741 30.9661 25.9741H38.4152ZM13.0339 0.75C15.6987 0.75 17.8686 2.92913 17.8686 5.63192V13.144C17.8686 15.8467 15.6987 18.0259 13.0339 18.0259H5.58475C2.91991 18.0259 0.75 15.8467 0.75 13.144V5.63192C0.75 2.92913 2.91991 0.75 5.58475 0.75H13.0339Z" stroke="#04091E" stroke-width="1.5"/>
</svg>
