<svg width="47" height="46" viewBox="0 0 47 46" fill="none" xmlns="http://www.w3.org/2000/svg">
<path d="M3.37276 42.3266L3.37476 42.329C5.03259 44.3282 7.04766 45.2269 9.97226 45.2269H9.9763C14.2862 45.2502 19.0379 45.2502 23.6551 45.2502C28.291 45.2502 32.7867 45.2502 36.5828 45.227L36.5874 45.2269C39.4687 45.2269 41.5529 44.3021 43.187 42.3293L43.1892 42.3266C44.3818 40.9006 45.1682 38.8217 45.2787 36.8004C45.2787 36.8004 45.2787 36.8003 45.2787 36.8002L46.0276 36.8411C46.0525 36.3793 46.1307 33.2702 46.2195 29.7446C46.2881 27.0151 46.3631 24.0361 46.4245 21.8428L3.37276 42.3266ZM3.37276 42.3266C2.18166 40.9024 1.39335 38.847 1.23665 36.7959C1.19087 35.772 0.894506 27.3136 0.76698 21.8428M3.37276 42.3266L0.76698 21.8428M0.76698 21.8428H45.6742C45.6123 24.0545 45.5371 27.0464 45.4684 29.7775L0.76698 21.8428Z" stroke="black" stroke-width="1.5"/>
<path d="M21.4805 31.0971V34.1036C21.4805 35.0655 22.2611 35.8462 23.2231 35.8462C24.185 35.8462 24.9656 35.0655 24.9656 34.1036V31.0971C24.9656 30.1352 24.185 29.3545 23.2231 29.3545C22.2611 29.3545 21.4805 30.1352 21.4805 31.0971Z" fill="#3D3A31"/>
<path d="M26.2225 0C29.71 0 32.5702 2.62318 33.007 5.99683H37.6004C42.4774 5.99683 46.4458 9.96529 46.4458 14.8445V22.8976C46.4458 23.4831 46.1507 24.0291 45.6651 24.3521C40.8742 27.5236 35.1864 29.6356 29.2197 30.4605C29.1384 30.4721 29.0594 30.4767 28.9804 30.4767C28.1928 30.4767 27.4888 29.9447 27.2913 29.164C26.8219 27.3145 25.1421 26.0203 23.2113 26.0203C21.2549 26.0203 19.5937 27.2866 19.0779 29.1733C18.8455 30.0167 18.0346 30.5557 17.1564 30.4396C11.2292 29.6124 5.56467 27.5097 0.783004 24.3521C0.292755 24.0315 0 23.4831 0 22.8976V14.8445C0 9.96529 3.97775 5.99683 8.86862 5.99683H13.4388C13.8757 2.62318 16.7335 0 20.2233 0H26.2225ZM26.2225 3.48518H20.2233C18.6596 3.48518 17.3539 4.55397 16.9635 5.99683H29.48C29.0896 4.55397 27.7838 3.48518 26.2225 3.48518Z" fill="#2662FA"/>
</svg>
